<?xml version="1.0" standalone="no"?><svg xmlns="http://www.w3.org/2000/svg" viewBox="0 0 1440 320"><path fill="#273036" fill-opacity="1" d="M0,288L15,282.7C30,277,60,267,90,256C120,245,150,235,180,218.7C210,203,240,181,270,149.3C300,117,330,75,360,96C390,117,420,203,450,213.3C480,224,510,160,540,165.3C570,171,600,245,630,256C660,267,690,213,720,208C750,203,780,245,810,256C840,267,870,245,900,218.7C930,192,960,160,990,165.3C1020,171,1050,213,1080,229.3C1110,245,1140,235,1170,202.7C1200,171,1230,117,1260,96C1290,75,1320,85,1350,117.3C1380,149,1410,203,1425,229.3L1440,256L1440,0L1425,0C1410,0,1380,0,1350,0C1320,0,1290,0,1260,0C1230,0,1200,0,1170,0C1140,0,1110,0,1080,0C1050,0,1020,0,990,0C960,0,930,0,900,0C870,0,840,0,810,0C780,0,750,0,720,0C690,0,660,0,630,0C600,0,570,0,540,0C510,0,480,0,450,0C420,0,390,0,360,0C330,0,300,0,270,0C240,0,210,0,180,0C150,0,120,0,90,0C60,0,30,0,15,0L0,0Z"></path></svg>